# xmcd
#
# Track frame offsets:
#	150
#	14606
#	29030
#	44419
#	62779
#	79557
#	94045
#	108951
#	132392
#	149156
#	165641
#	182331
#	202442
#	216852
#
# Disc length: 3266 seconds
#
# Revision: 0
# Processed by: cddbd v1.5.1PL0 Copyright (c) Steve Scherf et al.
# Submitted via: dBpowerAMP V4.0
#
DISCID=d30cc00e
DTITLE=Gaucha - Xirú Missioneiro - Pampa Brasino
DYEAR=2003
DGENRE=Gaucha
TTITLE0=Raimunda
TTITLE1=Nega Barrasca
TTITLE2=Xote Beiçudo
TTITLE3=O Guasca e a Roqueira
TTITLE4=Mundo Missioneiro
TTITLE5=Mina dos Diabos
TTITLE6=Bochincho em Unistalda
TTITLE7=Sangue de Domador
TTITLE8=Uma Pena Que é Tua
TTITLE9=Canto a São Luiz Gonzaga
TTITLE10=Um Velho Que Cheira a Pampa
TTITLE11=Tá No Papo da Galera
TTITLE12=Pó de Mangueira
TTITLE13=Tostado Labareda
EXTD=
EXTT0=
EXTT1=
EXTT2=
EXTT3=
EXTT4=
EXTT5=
EXTT6=
EXTT7=
EXTT8=
EXTT9=
EXTT10=
EXTT11=
EXTT12=
EXTT13=
PLAYORDER=
